PathFileType	4	(x/y/z)	S06_PSF_T06
DataRate	CameraRate	NumFrames	NumMarkers	Units	OrigDataRate	OrigDataStartFrame	OrigNumFrames
240	240	10	51	mm	240	263	420
Frame#	Time	Sternum			R.Acromium			L.Acromium			Top.Head			R.ASIS			L.ASIS			R.PSIS			L.PSIS			R.Great.Tro			L.Great.Tro			R.Iliac.Crest			L.Iliac.Crest			V.Sacral			R.Thigh.Upper.Post			R.Thigh.Lower.Ant			R.Thigh.Lower.Post			R.Thigh.Upper.Ant			R.Knee.Lat			R.Knee.Med			R.Shank.Upper.Post			R.Shank.Lower.Ant			R.Shank.Lower.Post			R.Shank.Upper.Ant			R.Ankle.Lat			R.Ankle.Med			R.Heel.Upper			R.Heel.Med			R.Heel.Lat			R.Toe.Lat			R.Toe.Med			R.Toe.Tip			L.Thigh.Upper.Post			L.Thigh.Lower.Ant			L.Thigh.Lower.Post			L.Thigh.Upper.Ant			L.Knee.Lat			L.Knee.Med			L.Shank.Upper.Post			L.Shank.Lower.Ant			L.Shank.Lower.Post			L.Shank.Upper.Ant			L.Ankle.Lat			L.Ankle.Med			L.Heel.Upper			L.Heel.Med			L.Heel.Lat			L.Toe.Lat			L.Toe.Med			L.Toe.Tip			Cervical.Spine			Back			
		X1	Y1	Z1	X2	Y2	Z2	X3	Y3	Z3	X4	Y4	Z4	X5	Y5	Z5	X6	Y6	Z6	X7	Y7	Z7	X8	Y8	Z8	X9	Y9	Z9	X10	Y10	Z10	X11	Y11	Z11	X12	Y12	Z12	X13	Y13	Z13	X14	Y14	Z14	X15	Y15	Z15	X16	Y16	Z16	X17	Y17	Z17	X18	Y18	Z18	X19	Y19	Z19	X20	Y20	Z20	X21	Y21	Z21	X22	Y22	Z22	X23	Y23	Z23	X24	Y24	Z24	X25	Y25	Z25	X26	Y26	Z26	X27	Y27	Z27	X28	Y28	Z28	X29	Y29	Z29	X30	Y30	Z30	X31	Y31	Z31	X32	Y32	Z32	X33	Y33	Z33	X34	Y34	Z34	X35	Y35	Z35	X36	Y36	Z36	X37	Y37	Z37	X38	Y38	Z38	X39	Y39	Z39	X40	Y40	Z40	X41	Y41	Z41	X42	Y42	Z42	X43	Y43	Z43	X44	Y44	Z44	X45	Y45	Z45	X46	Y46	Z46	X47	Y47	Z47	X48	Y48	Z48	X49	Y49	Z49	X50	Y50	Z50	X51	Y51	Z51	

263	1.0917	-93.003	1272.5	340.73	-208.54	1480.8	510.22	-228.22	1480.8	158.51	-185.58	1797.1	332.21	-150.96	1037.7	472.24	-136.56	1035.4	218.91	NaN	NaN	NaN	-344.12	1062.6	290.52	-222.65	968.28	520.57	-228.53	957.99	161.85	-231.32	1117.9	497.72	-206.13	1107.4	180.52	-358.4	1028.1	334.61	-281.9	727	496.55	-246.73	637.81	459.43	-313.75	646.55	474.24	-209.76	719.34	480.97	-328.77	533.23	453.51	-321.59	543.66	325.57	-445.16	329.67	440.74	-410.3	251.12	413.51	-474.28	260.18	421.72	-380.57	320.03	433.12	-489.68	127.08	388.52	-475.11	137.22	304.08	-565.79	96.806	340.43	-561.38	63.615	311.32	-561.69	65.892	376.16	-386.99	37.659	417.47	-361.74	38.456	295.61	-294.39	44.794	341.61	-88.151	723.45	179.28	-25.033	663.31	245.92	-81.406	633.93	198.49	-43.193	754.79	225.37	-65.405	544.85	218.02	-45.141	557.07	340.76	-21.641	318.63	227.9	62.102	287.85	221.94	4.1599	250.83	243.9	33.806	352.71	212.56	109	137.26	236.09	116.39	166.28	323.82	62.187	63.47	286.92	86.88	43.571	320.38	84.04	41	258.59	239.08	125.9	208.88	256.98	148.38	323.74	306.8	196.62	265.51	-272.48	1535.1	337.22	-335.51	1263.5	338.65
264	1.0958	-87.462	1271.7	340.43	-203.01	1480.2	509.97	-222.76	1480.1	158.23	-180.14	1796.5	331.93	-145.33	1037.1	472.02	-131.03	1034.6	218.64	NaN	NaN	NaN	-338.57	1061.9	290.19	-217.15	967.74	520.31	-222.87	957.23	161.6	-225.73	1117.2	497.4	-200.62	1106.7	180.21	-352.83	1027.4	334.29	-277.02	726.74	496.44	-242.06	637.41	459.45	-309.07	646.35	474.17	-204.91	718.89	480.9	-324.51	533.02	453.48	-317.16	543.37	325.56	-442.48	330.32	440.82	-408.3	251.5	413.57	-472.19	261.1	421.85	-377.96	320.17	433.14	-488.76	128.11	388.62	-474.19	138.19	304.18	-565.13	98.392	340.6	-560.99	65.22	311.43	-561.24	67.399	376.28	-386.82	37.686	417.49	-361.56	38.502	295.61	-294.24	44.603	341.66	-83.013	722.48	179.47	-19.92	662.46	246.18	-76.475	633.01	199	-37.922	753.89	225.3	-60.265	544.09	218.57	-40.065	556.47	341.32	-16.019	317.9	228.42	67.803	287.29	222.82	9.8395	250.15	244.5	39.429	352.1	213.37	114.93	136.81	236.99	121.95	165.85	324.78	68.278	62.904	287.64	92.899	43.077	321.16	90.295	40.53	259.36	245.21	125.96	210.21	262.51	148.6	325.14	312.37	197.03	267.07	-266.98	1534.5	336.96	-329.99	1262.8	338.37
265	1.1	-81.905	1271.1	340.12	-197.46	1479.6	509.7	-217.29	1479.4	157.95	-174.68	1795.9	331.64	-139.67	1036.5	471.79	-125.47	1033.9	218.36	NaN	NaN	NaN	-333	1061.1	289.87	-211.62	967.25	520.06	-217.19	956.48	161.38	-220.11	1116.6	497.08	-195.09	1105.9	179.88	-347.23	1026.6	333.98	-272.06	726.5	496.32	-237.28	637.02	459.48	-304.29	646.15	474.1	-199.98	718.46	480.83	-320.13	532.8	453.46	-312.6	543.07	325.57	-439.72	331.01	440.9	-406.22	251.91	413.66	-470.02	262.05	421.98	-375.28	320.32	433.17	-487.8	129.2	388.72	-473.2	139.21	304.3	-564.42	100.07	340.78	-560.57	66.921	311.54	-560.75	68.995	376.41	-386.63	37.718	417.52	-361.38	38.556	295.6	-294.09	44.415	341.71	-77.803	721.57	179.69	-14.701	661.67	246.43	-71.441	632.16	199.52	-32.553	753.05	225.23	-55.016	543.38	219.1	-34.881	555.9	341.83	-10.613	317.17	228.93	73.236	286.61	223.68	15.2	249.45	245.09	44.882	351.4	214.17	120.37	136.22	237.88	127.05	165.24	325.73	73.773	62.315	288.33	98.252	42.51	321.9	95.896	40.012	260.09	250.83	125.67	211.53	267.54	148.41	326.54	317.51	196.94	268.65	-261.48	1533.9	336.69	-324.45	1262.1	338.09
266	1.1042	-76.333	1270.4	339.78	-191.9	1479	509.42	-211.84	1478.8	157.65	-169.21	1795.4	331.35	-133.98	1035.9	471.56	-119.87	1033.2	218.08	NaN	NaN	NaN	-327.39	1060.4	289.58	-206.06	966.78	519.8	-211.5	955.75	161.18	-214.45	1116	496.77	-189.55	1105.2	179.55	-341.61	1025.9	333.69	-267.03	726.27	496.21	-232.41	636.66	459.53	-299.41	645.95	474.03	-195	718.07	480.76	-315.63	532.58	453.46	-307.89	542.77	325.6	-436.86	331.73	441	-404.07	252.35	413.76	-467.78	263.05	422.12	-372.51	320.49	433.21	-486.79	130.35	388.84	-472.15	140.27	304.44	-563.65	101.84	340.97	-560.1	68.72	311.66	-560.22	70.682	376.54	-386.42	37.755	417.55	-361.19	38.618	295.59	-293.94	44.231	341.76	-72.52	720.73	179.93	-9.3795	660.94	246.69	-66.302	631.37	200.03	-27.087	752.27	225.18	-49.668	542.73	219.6	-29.59	555.37	342.31	-5.4184	316.45	229.43	78.408	285.82	224.53	20.252	248.72	245.67	50.167	350.63	214.94	125.34	135.47	238.75	131.72	164.46	326.67	78.701	61.714	288.98	102.97	41.884	322.6	100.87	39.456	260.79	255.96	125.03	212.85	272.08	147.83	327.96	322.27	196.38	270.26	-255.98	1533.3	336.42	-318.89	1261.5	337.81
267	1.1083	-70.743	1269.8	339.43	-186.34	1478.4	509.14	-206.38	1478.2	157.35	-163.72	1794.9	331.05	-128.27	1035.4	471.33	-114.24	1032.5	217.78	NaN	NaN	NaN	-321.76	1059.7	289.3	-200.46	966.35	519.55	-205.81	955.05	160.99	-208.75	1115.4	496.47	-183.98	1104.5	179.22	-335.96	1025.3	333.43	-261.92	726.05	496.09	-227.43	636.31	459.59	-294.44	645.76	473.97	-189.94	717.7	480.68	-311	532.36	453.47	-303.05	542.46	325.64	-433.91	332.48	441.1	-401.84	252.83	413.88	-465.45	264.09	422.27	-369.66	320.68	433.27	-485.72	131.56	388.97	-471.02	141.39	304.59	-562.81	103.71	341.17	-559.59	70.621	311.79	-559.64	72.463	376.68	-386.21	37.797	417.59	-360.98	38.687	295.58	-293.79	44.051	341.81	-67.167	719.94	180.18	-3.9603	660.26	246.94	-61.063	630.64	200.53	-21.529	751.55	225.14	-44.233	542.12	220.08	-24.194	554.89	342.75	-0.42541	315.74	229.92	83.332	284.92	225.36	25.014	247.96	246.24	55.292	349.78	215.69	129.87	134.6	239.6	135.99	163.51	327.6	83.094	61.115	289.61	107.07	41.213	323.26	105.24	38.873	261.45	260.64	124.05	214.17	276.18	146.88	329.37	326.66	195.35	271.87	-250.48	1532.8	336.13	-313.31	1260.8	337.53
268	1.1125	-65.133	1269.3	339.06	-180.76	1477.9	508.84	-200.93	1477.6	157.03	-158.22	1794.4	330.74	-122.52	1034.9	471.08	-108.58	1031.8	217.48	NaN	NaN	NaN	-316.1	1059.1	289.04	-194.83	965.95	519.3	-200.1	954.38	160.82	-203.02	1114.9	496.17	-178.38	1103.8	178.88	-330.27	1024.7	333.18	-256.73	725.85	495.98	-222.35	635.98	459.68	-289.36	645.56	473.91	-184.81	717.36	480.62	-306.25	532.14	453.5	-298.06	542.14	325.7	-430.86	333.27	441.21	-399.53	253.33	414.01	-463.03	265.18	422.43	-366.72	320.9	433.33	-484.6	132.84	389.1	-469.82	142.56	304.75	-561.91	105.67	341.36	-559.03	72.627	311.92	-559.02	74.342	376.81	-385.98	37.844	417.62	-360.77	38.764	295.57	-293.63	43.877	341.86	-61.746	719.22	180.44	1.5505	659.63	247.19	-55.729	629.97	201.03	-15.884	750.88	225.11	-38.724	541.54	220.53	-18.698	554.44	343.14	4.3772	315.02	230.41	88.023	283.92	226.17	29.504	247.18	246.81	60.262	348.87	216.42	133.99	133.6	240.44	139.88	162.43	328.51	86.992	60.534	290.21	110.61	40.513	323.89	109.05	38.28	262.08	264.89	122.77	215.48	279.87	145.57	330.79	330.73	193.89	273.49	-244.98	1532.2	335.84	-307.71	1260.3	337.25
269	1.1167	-59.504	1268.8	338.67	-175.17	1477.4	508.52	-195.49	1477.1	156.71	-152.71	1793.9	330.44	-116.74	1034.5	470.83	-102.88	1031.2	217.18	NaN	NaN	NaN	-310.4	1058.5	288.81	-189.17	965.59	519.04	-194.4	953.73	160.68	-197.24	1114.5	495.87	-172.76	1103.1	178.54	-324.55	1024.1	332.96	-251.46	725.65	495.87	-217.17	635.66	459.78	-284.18	645.36	473.86	-179.61	717.05	480.56	-301.37	531.91	453.54	-292.91	541.8	325.78	-427.7	334.09	441.34	-397.14	253.87	414.16	-460.53	266.32	422.59	-363.69	321.14	433.42	-483.42	134.19	389.24	-468.54	143.78	304.93	-560.93	107.74	341.56	-558.41	74.743	312.05	-558.35	76.321	376.95	-385.73	37.897	417.66	-360.54	38.85	295.56	-293.47	43.708	341.91	-56.263	718.56	180.72	7.1449	659.05	247.43	-50.307	629.35	201.51	-10.157	750.26	225.09	-33.157	541	220.96	-13.107	554.03	343.49	9.0037	314.31	230.9	92.5	282.82	226.96	33.746	246.37	247.37	65.089	347.89	217.14	137.74	132.49	241.25	143.43	161.21	329.41	90.438	59.986	290.79	113.63	39.801	324.49	112.33	37.694	262.67	268.75	121.19	216.77	283.19	143.93	332.19	334.5	192.02	275.12	-239.47	1531.7	335.54	-302.09	1259.7	336.96
270	1.1208	-53.853	1268.3	338.26	-169.56	1477	508.2	-190.05	1476.6	156.37	-147.18	1793.5	330.13	-110.93	1034.1	470.58	-97.14	1030.7	216.88	NaN	NaN	NaN	-304.67	1058	288.59	-183.48	965.26	518.79	-188.69	953.11	160.54	-191.42	1114.1	495.59	-167.11	1102.5	178.19	-318.79	1023.6	332.76	-246.12	725.45	495.77	-211.87	635.36	459.91	-278.9	645.16	473.82	-174.34	716.76	480.51	-296.35	531.68	453.61	-287.61	541.45	325.88	-424.43	334.95	441.47	-394.65	254.44	414.33	-457.92	267.5	422.76	-360.57	321.4	433.51	-482.16	135.62	389.4	-467.18	145.06	305.12	-559.87	109.91	341.77	-557.73	76.974	312.17	-557.61	78.405	377.08	-385.47	37.955	417.7	-360.29	38.944	295.55	-293.3	43.545	341.95	-50.724	717.96	180.99	12.814	658.51	247.67	-44.81	628.8	201.97	-4.3555	749.69	225.06	-27.548	540.49	221.36	-7.4303	553.67	343.8	13.471	313.59	231.39	96.784	281.65	227.73	37.766	245.55	247.93	69.784	346.86	217.83	141.17	131.3	242.04	146.69	159.88	330.29	93.481	59.489	291.33	116.17	39.096	325.04	115.15	37.134	263.22	272.26	119.36	218.04	286.17	141.98	333.59	338.01	189.77	276.74	-233.96	1531.3	335.23	-296.44	1259.1	336.69
271	1.125	-48.18	1267.9	337.83	-163.94	1476.6	507.86	-184.61	1476.1	156.02	-141.64	1793.1	329.81	-105.08	1033.7	470.31	-91.364	1030.1	216.57	NaN	NaN	NaN	-298.89	1057.5	288.38	-177.74	964.97	518.54	-182.97	952.52	160.43	-185.56	1113.7	495.31	-161.42	1101.9	177.84	-312.99	1023.1	332.58	-240.68	725.27	495.68	-206.45	635.07	460.06	-273.5	644.95	473.79	-168.98	716.49	480.48	-291.19	531.45	453.7	-282.14	541.08	326	-421.06	335.84	441.61	-392.08	255.05	414.5	-455.22	268.74	422.94	-357.36	321.69	433.63	-480.84	137.12	389.56	-465.72	146.4	305.33	-558.72	112.19	341.97	-556.97	79.325	312.3	-556.82	80.597	377.21	-385.19	38.02	417.74	-360.04	39.048	295.55	-293.13	43.388	342	-45.138	717.41	181.27	18.546	658.01	247.89	-39.25	628.29	202.43	1.5128	749.16	225.04	-21.915	540	221.75	-1.6804	553.34	344.08	17.797	312.89	231.87	100.9	280.42	228.48	41.593	244.71	248.48	74.36	345.79	218.52	144.3	130.04	242.8	149.68	158.46	331.15	96.17	59.055	291.84	118.3	38.412	325.55	117.55	36.617	263.73	275.45	117.3	219.28	288.87	139.77	334.96	341.3	187.18	278.34	-228.45	1530.9	334.91	-290.78	1258.6	336.41
272	1.1292	-42.484	1267.6	337.39	-158.31	1476.2	507.5	-179.18	1475.7	155.66	-136.09	1792.8	329.49	-99.198	1033.4	470.05	-85.551	1029.6	216.25	NaN	NaN	NaN	-293.08	1057	288.19	-171.98	964.71	518.28	-177.25	951.97	160.32	-179.66	1113.4	495.04	-155.7	1101.4	177.49	-307.15	1022.6	332.42	-235.17	725.08	495.6	-200.92	634.79	460.24	-267.98	644.74	473.77	-163.54	716.25	480.47	-285.89	531.21	453.81	-276.5	540.7	326.14	-417.56	336.78	441.77	-389.41	255.7	414.7	-452.41	270.04	423.12	-354.05	322.01	433.76	-479.44	138.69	389.73	-464.17	147.81	305.54	-557.46	114.59	342.17	-556.12	81.802	312.41	-555.94	82.901	377.33	-384.9	38.092	417.78	-359.76	39.162	295.54	-292.96	43.238	342.04	-39.516	716.91	181.54	24.33	657.55	248.11	-33.643	627.83	202.87	7.4388	748.67	225.02	-16.273	539.53	222.1	4.1269	553.05	344.33	22.002	312.19	232.35	104.87	279.15	229.22	45.257	243.87	249.02	78.833	344.69	219.18	147.2	128.74	243.54	152.45	156.96	331.99	98.556	58.698	292.32	120.06	37.767	326.01	119.57	36.158	264.19	278.36	115.05	220.49	291.32	137.31	336.3	344.39	184.29	279.93	-222.93	1530.5	334.59	-285.08	1258.2	336.14
